<?xml version="1.0" standalone="no"?>
<!DOCTYPE svg PUBLIC "-//W3C//DTD SVG 20010904//EN"
 "http://www.w3.org/TR/2001/REC-SVG-20010904/DTD/svg10.dtd">
<svg version="1.0" xmlns="http://www.w3.org/2000/svg"
 width="441.000000pt" height="274.000000pt" viewBox="0 0 441.000000 274.000000"
 preserveAspectRatio="xMidYMid meet">

<g transform="translate(0.000000,274.000000) scale(0.100000,-0.100000)"
fill="#000000" stroke="none">
<path d="M1268 2569 c-10 -5 -18 -18 -18 -27 0 -9 57 -69 126 -132 121 -111
254 -247 254 -260 0 -9 -142 -129 -227 -194 -38 -28 -142 -97 -233 -153 -293
-180 -384 -241 -443 -293 -104 -93 -185 -229 -222 -371 -25 -95 -17 -270 17
-361 90 -240 309 -420 577 -474 111 -22 312 -15 423 14 189 51 356 148 479
280 85 91 129 160 175 274 17 44 34 76 37 71 2 -4 10 -26 17 -48 24 -76 92
-194 154 -267 124 -144 304 -255 506 -310 72 -20 109 -23 245 -23 192 0 243
12 395 87 90 45 118 66 196 143 76 75 98 105 133 176 54 113 75 208 68 319
-11 166 -79 320 -201 448 -75 79 -175 149 -458 320 -170 103 -339 225 -430
311 l-60 57 196 190 c195 190 211 212 169 228 -25 10 -54 -15 -240 -197 l-173
-170 -26 24 c-14 13 -60 69 -101 124 -42 55 -82 104 -90 108 -16 10 -43 -9
-43 -30 0 -21 74 -126 147 -210 l64 -74 -54 -62 c-174 -200 -339 -464 -392
-627 -10 -30 -20 -59 -23 -64 -3 -5 -17 24 -32 65 -64 174 -187 377 -349 574
-50 61 -91 112 -91 115 0 3 25 34 56 70 132 155 170 228 127 244 -21 8 -24 5
-102 -97 -39 -51 -84 -108 -101 -127 l-30 -34 -123 120 c-138 136 -266 254
-276 254 -3 0 -14 -5 -23 -11z m497 -565 c201 -247 322 -458 375 -654 19 -72
22 -102 18 -205 -4 -100 -10 -135 -35 -210 -39 -115 -91 -202 -171 -286 -207
-221 -551 -333 -839 -273 -98 20 -140 36 -237 93 -200 116 -316 305 -316 516
0 194 98 385 262 509 37 28 133 91 215 140 236 142 420 268 533 365 58 49 110
89 115 90 6 0 42 -38 80 -85z m1058 13 c115 -101 202 -164 395 -282 323 -200
392 -247 461 -321 74 -80 111 -141 147 -246 111 -328 -88 -661 -466 -780 -65
-20 -95 -23 -220 -23 -126 1 -158 4 -242 27 -208 58 -402 188 -507 342 -109
157 -160 372 -131 546 14 88 67 236 118 329 80 147 325 481 354 481 5 0 46
-33 91 -73z"/>
</g>
</svg>
